<svg viewBox="0 0 18 19" fill="none" xmlns="http://www.w3.org/2000/svg">
    <path d="M12.834 16.4041C13.428 16.4041 13.896 15.9541 13.914 15.3601L14.256 5.08211H15.606V4.36211L11.808 4.36217V3.58814C11.808 2.97612 11.304 2.47217 10.692 2.47217H7.30801C6.696 2.47217 6.19204 2.9762 6.19204 3.58814V4.36217H2.39404V5.08217H3.74404L4.08606 15.3602C4.10405 15.9542 4.57203 16.4042 5.16606 16.4042L12.834 16.4041ZM6.91197 3.58814C6.91197 3.37217 7.09197 3.19217 7.30794 3.19217H10.6919C10.9079 3.19217 11.0879 3.37217 11.0879 3.58814V4.36217H6.91191L6.91197 3.58814ZM4.80597 15.3421L4.46395 5.08214H13.518L13.1759 15.3421C13.1759 15.5401 13.0139 15.6842 12.8159 15.6842L5.16594 15.6841C4.98594 15.6841 4.82398 15.5401 4.80594 15.3421L4.80597 15.3421Z"  stroke-width="0.2"/>
    <path d="M8.64001 7.63818H9.36001V13.0202H8.64001V7.63818Z"/>
    <path d="M6.47998 7.63818H7.19998V13.0202H6.47998V7.63818Z"/>
    <path d="M10.7999 7.63818H11.5199V13.0202H10.7999V7.63818Z"/>
</svg>
