<svg width="16" height="17" viewBox="0 0 16 17" fill="none" xmlns="http://www.w3.org/2000/svg">
<path d="M12.1909 1.01291C11.9436 0.953607 11.6673 1.01976 11.4781 1.21014L1.8318 10.9128C1.78568 10.9574 1.75098 11.0124 1.73056 11.0733L0.229501 15.5887C0.198652 15.6829 0.204007 15.7852 0.244302 15.8758C0.284675 15.9663 0.357161 16.0387 0.447841 16.0788C0.538462 16.1189 0.640777 16.1239 0.734954 16.0929L5.22976 14.5797C5.28788 14.5605 5.34083 14.5282 5.38447 14.4853L15.0307 4.78261C15.3191 4.49254 15.3193 4.01203 15.0304 3.72137L12.5392 1.20969C12.467 1.13702 12.3824 1.08253 12.2918 1.04634C12.2579 1.03273 12.2262 1.02127 12.1908 1.01281L12.1909 1.01291ZM12.0092 1.81185L14.4302 4.24642L13.0037 5.68247L10.5826 3.2479L12.0092 1.81185ZM10.0184 3.80829L12.4378 6.24898L5.10163 13.6332L2.67446 11.197L10.0184 3.80829ZM2.28922 11.9347L4.36734 14.0315L1.24481 15.0842L2.28922 11.9347Z" fill="#1E1E1E" stroke="#1E1E1E" stroke-width="0.33"/>
</svg>
